<svg width="35" height="24" viewBox="0 0 35 24" fill="none" xmlns="http://www.w3.org/2000/svg">
<path d="M14.2625 13.2187C12.693 11.9664 10.8719 11.3046 8.99061 11.3046C4.7589 11.3046 1.17577 14.7363 0.0765526 19.8359C-0.114854 20.7448 0.0560448 21.6887 0.548232 22.427C1.02675 23.1445 1.74479 23.5546 2.51042 23.5546H32.375C26.7312 23.5546 23.8984 21.5241 19.6219 17.8398L14.2625 13.2187ZM27.0976 12.2234L25.614 3.66479C25.4567 2.72144 24.9167 1.88745 24.1308 1.35425C23.345 0.821044 22.3677 0.626904 21.438 0.825146L10.9867 3.04792C9.49921 3.36237 8.39452 4.59448 8.23046 6.09839L7.85311 9.66401C8.22909 9.61616 8.59796 9.55464 8.98788 9.55464C11.2776 9.55464 13.4723 10.3476 15.4082 11.8996L20.7676 16.5136C24.6504 19.8632 27.0621 21.8046 32.3723 21.8046C33.8215 21.8046 34.9973 20.6289 34.9973 19.1796C35 17.7906 33.3812 12.65 27.0976 12.2234Z" fill="black"/>
</svg>
